<svg width="355" height="77" viewBox="0 0 355 77" fill="none" xmlns="http://www.w3.org/2000/svg">
<rect width="355" height="77" rx="38.5" fill="url(#paint0_linear_203_21)"/>
<g filter="url(#filter0_i_203_21)">
<path d="M21 17C21 15.3431 22.3432 14 24 14H63V57H24C22.3432 57 21 55.6569 21 54V17Z" fill="url(#paint1_linear_203_21)"/>
</g>
<path d="M52 25H33V45H52V25Z" fill="white"/>
<path d="M83.7031 19.875V54H77.2578V19.875H83.7031ZM97.4609 34.6172V39.7031H82.0156V34.6172H97.4609ZM99.2656 19.875V24.9609H82.0156V19.875H99.2656ZM108.758 33.8203V54H102.57V28.6406H108.43L108.758 33.8203ZM116.469 28.4766L116.375 34.2422C116.031 34.1797 115.641 34.1328 115.203 34.1016C114.781 34.0703 114.383 34.0547 114.008 34.0547C113.055 34.0547 112.219 34.1875 111.5 34.4531C110.781 34.7031 110.18 35.0703 109.695 35.5547C109.227 36.0391 108.867 36.6328 108.617 37.3359C108.367 38.0234 108.227 38.8047 108.195 39.6797L106.859 39.5156C106.859 37.9062 107.023 36.4141 107.352 35.0391C107.68 33.6641 108.156 32.4609 108.781 31.4297C109.406 30.3984 110.188 29.6016 111.125 29.0391C112.078 28.4609 113.172 28.1719 114.406 28.1719C114.75 28.1719 115.117 28.2031 115.508 28.2656C115.914 28.3125 116.234 28.3828 116.469 28.4766ZM126.43 28.6406V54H120.219V28.6406H126.43ZM119.797 22.0078C119.797 21.0859 120.109 20.3203 120.734 19.7109C121.375 19.1016 122.234 18.7969 123.312 18.7969C124.391 18.7969 125.242 19.1016 125.867 19.7109C126.508 20.3203 126.828 21.0859 126.828 22.0078C126.828 22.9141 126.508 23.6719 125.867 24.2812C125.242 24.8906 124.391 25.1953 123.312 25.1953C122.234 25.1953 121.375 24.8906 120.734 24.2812C120.109 23.6719 119.797 22.9141 119.797 22.0078ZM143.727 54.4688C141.805 54.4688 140.078 54.1562 138.547 53.5312C137.016 52.9062 135.711 52.0391 134.633 50.9297C133.57 49.8047 132.75 48.5 132.172 47.0156C131.609 45.5156 131.328 43.9062 131.328 42.1875V41.25C131.328 39.2969 131.609 37.5234 132.172 35.9297C132.734 34.3203 133.531 32.9375 134.562 31.7812C135.594 30.625 136.828 29.7344 138.266 29.1094C139.703 28.4844 141.289 28.1719 143.023 28.1719C144.82 28.1719 146.406 28.4766 147.781 29.0859C149.156 29.6797 150.305 30.5234 151.227 31.6172C152.148 32.7109 152.844 34.0234 153.312 35.5547C153.781 37.0703 154.016 38.75 154.016 40.5938V43.1953H134.141V38.9297H147.922V38.4609C147.891 37.4766 147.703 36.5781 147.359 35.7656C147.016 34.9375 146.484 34.2812 145.766 33.7969C145.047 33.2969 144.117 33.0469 142.977 33.0469C142.055 33.0469 141.25 33.25 140.562 33.6562C139.891 34.0469 139.328 34.6094 138.875 35.3438C138.438 36.0625 138.109 36.9219 137.891 37.9219C137.672 38.9219 137.562 40.0312 137.562 41.25V42.1875C137.562 43.25 137.703 44.2344 137.984 45.1406C138.281 46.0469 138.711 46.8359 139.273 47.5078C139.852 48.1641 140.539 48.6797 141.336 49.0547C142.148 49.4141 143.07 49.5938 144.102 49.5938C145.398 49.5938 146.57 49.3438 147.617 48.8438C148.68 48.3281 149.602 47.5703 150.383 46.5703L153.5 49.8047C152.969 50.5859 152.25 51.3359 151.344 52.0547C150.453 52.7734 149.375 53.3594 148.109 53.8125C146.844 54.25 145.383 54.4688 143.727 54.4688ZM164.234 34.0547V54H158.047V28.6406H163.859L164.234 34.0547ZM163.25 40.4062H161.422C161.438 38.5625 161.688 36.8906 162.172 35.3906C162.656 33.8906 163.336 32.6016 164.211 31.5234C165.102 30.4453 166.156 29.6172 167.375 29.0391C168.594 28.4609 169.953 28.1719 171.453 28.1719C172.672 28.1719 173.773 28.3438 174.758 28.6875C175.742 29.0312 176.586 29.5781 177.289 30.3281C178.008 31.0781 178.555 32.0625 178.93 33.2812C179.32 34.4844 179.516 35.9688 179.516 37.7344V54H173.281V37.6875C173.281 36.5312 173.109 35.6172 172.766 34.9453C172.438 34.2734 171.953 33.7969 171.312 33.5156C170.688 33.2344 169.914 33.0938 168.992 33.0938C168.039 33.0938 167.203 33.2891 166.484 33.6797C165.781 34.0547 165.188 34.5781 164.703 35.25C164.234 35.9219 163.875 36.6953 163.625 37.5703C163.375 38.4453 163.25 39.3906 163.25 40.4062ZM200.188 48.6094V18H206.422V54H200.797L200.188 48.6094ZM183.898 41.625V41.1328C183.898 39.1953 184.117 37.4375 184.555 35.8594C185.008 34.2656 185.664 32.8984 186.523 31.7578C187.383 30.6172 188.422 29.7344 189.641 29.1094C190.875 28.4844 192.273 28.1719 193.836 28.1719C195.352 28.1719 196.672 28.4766 197.797 29.0859C198.938 29.6953 199.906 30.5625 200.703 31.6875C201.516 32.8125 202.164 34.1484 202.648 35.6953C203.133 37.2266 203.484 38.9141 203.703 40.7578V42.0938C203.484 43.8906 203.133 45.5391 202.648 47.0391C202.164 48.5391 201.516 49.8516 200.703 50.9766C199.906 52.0859 198.938 52.9453 197.797 53.5547C196.656 54.1641 195.32 54.4688 193.789 54.4688C192.242 54.4688 190.852 54.1484 189.617 53.5078C188.398 52.8672 187.359 51.9688 186.5 50.8125C185.656 49.6562 185.008 48.2969 184.555 46.7344C184.117 45.1719 183.898 43.4688 183.898 41.625ZM190.109 41.1328V41.625C190.109 42.7188 190.203 43.7422 190.391 44.6953C190.578 45.6484 190.883 46.4922 191.305 47.2266C191.727 47.9453 192.266 48.5078 192.922 48.9141C193.594 49.3203 194.406 49.5234 195.359 49.5234C196.578 49.5234 197.578 49.2578 198.359 48.7266C199.156 48.1797 199.773 47.4375 200.211 46.5C200.648 45.5469 200.93 44.4766 201.055 43.2891V39.6094C200.992 38.6719 200.828 37.8047 200.562 37.0078C200.312 36.2109 199.953 35.5234 199.484 34.9453C199.031 34.3672 198.469 33.9141 197.797 33.5859C197.125 33.2578 196.328 33.0938 195.406 33.0938C194.453 33.0938 193.641 33.3047 192.969 33.7266C192.297 34.1328 191.75 34.7031 191.328 35.4375C190.906 36.1719 190.594 37.0234 190.391 37.9922C190.203 38.9609 190.109 40.0078 190.109 41.1328ZM234.641 54H227.281L227.328 48.9375H234.641C236.625 48.9375 238.289 48.5 239.633 47.625C240.977 46.7344 241.992 45.4609 242.68 43.8047C243.367 42.1328 243.711 40.1328 243.711 37.8047V36.0469C243.711 34.25 243.516 32.6641 243.125 31.2891C242.734 29.9141 242.156 28.7578 241.391 27.8203C240.641 26.8828 239.711 26.1719 238.602 25.6875C237.492 25.2031 236.219 24.9609 234.781 24.9609H227.141V19.875H234.781C237.062 19.875 239.141 20.2578 241.016 21.0234C242.906 21.7891 244.539 22.8906 245.914 24.3281C247.305 25.75 248.367 27.4531 249.102 29.4375C249.852 31.4219 250.227 33.6406 250.227 36.0938V37.8047C250.227 40.2422 249.852 42.4609 249.102 44.4609C248.367 46.4453 247.305 48.1484 245.914 49.5703C244.539 50.9922 242.898 52.0859 240.992 52.8516C239.086 53.6172 236.969 54 234.641 54ZM230.891 19.875V54H224.445V19.875H230.891ZM261.43 33.8203V54H255.242V28.6406H261.102L261.43 33.8203ZM269.141 28.4766L269.047 34.2422C268.703 34.1797 268.312 34.1328 267.875 34.1016C267.453 34.0703 267.055 34.0547 266.68 34.0547C265.727 34.0547 264.891 34.1875 264.172 34.4531C263.453 34.7031 262.852 35.0703 262.367 35.5547C261.898 36.0391 261.539 36.6328 261.289 37.3359C261.039 38.0234 260.898 38.8047 260.867 39.6797L259.531 39.5156C259.531 37.9062 259.695 36.4141 260.023 35.0391C260.352 33.6641 260.828 32.4609 261.453 31.4297C262.078 30.3984 262.859 29.6016 263.797 29.0391C264.75 28.4609 265.844 28.1719 267.078 28.1719C267.422 28.1719 267.789 28.2031 268.18 28.2656C268.586 28.3125 268.906 28.3828 269.141 28.4766ZM279.102 28.6406V54H272.891V28.6406H279.102ZM272.469 22.0078C272.469 21.0859 272.781 20.3203 273.406 19.7109C274.047 19.1016 274.906 18.7969 275.984 18.7969C277.062 18.7969 277.914 19.1016 278.539 19.7109C279.18 20.3203 279.5 21.0859 279.5 22.0078C279.5 22.9141 279.18 23.6719 278.539 24.2812C277.914 24.8906 277.062 25.1953 275.984 25.1953C274.906 25.1953 274.047 24.8906 273.406 24.2812C272.781 23.6719 272.469 22.9141 272.469 22.0078ZM293.422 49.3125L299.328 28.6406H305.797L297.102 54H293.164L293.422 49.3125ZM289.109 28.6406L295.086 49.3594L295.297 54H291.336L282.617 28.6406H289.109ZM320.117 54.4688C318.195 54.4688 316.469 54.1562 314.938 53.5312C313.406 52.9062 312.102 52.0391 311.023 50.9297C309.961 49.8047 309.141 48.5 308.562 47.0156C308 45.5156 307.719 43.9062 307.719 42.1875V41.25C307.719 39.2969 308 37.5234 308.562 35.9297C309.125 34.3203 309.922 32.9375 310.953 31.7812C311.984 30.625 313.219 29.7344 314.656 29.1094C316.094 28.4844 317.68 28.1719 319.414 28.1719C321.211 28.1719 322.797 28.4766 324.172 29.0859C325.547 29.6797 326.695 30.5234 327.617 31.6172C328.539 32.7109 329.234 34.0234 329.703 35.5547C330.172 37.0703 330.406 38.75 330.406 40.5938V43.1953H310.531V38.9297H324.312V38.4609C324.281 37.4766 324.094 36.5781 323.75 35.7656C323.406 34.9375 322.875 34.2812 322.156 33.7969C321.438 33.2969 320.508 33.0469 319.367 33.0469C318.445 33.0469 317.641 33.25 316.953 33.6562C316.281 34.0469 315.719 34.6094 315.266 35.3438C314.828 36.0625 314.5 36.9219 314.281 37.9219C314.062 38.9219 313.953 40.0312 313.953 41.25V42.1875C313.953 43.25 314.094 44.2344 314.375 45.1406C314.672 46.0469 315.102 46.8359 315.664 47.5078C316.242 48.1641 316.93 48.6797 317.727 49.0547C318.539 49.4141 319.461 49.5938 320.492 49.5938C321.789 49.5938 322.961 49.3438 324.008 48.8438C325.07 48.3281 325.992 47.5703 326.773 46.5703L329.891 49.8047C329.359 50.5859 328.641 51.3359 327.734 52.0547C326.844 52.7734 325.766 53.3594 324.5 53.8125C323.234 54.25 321.773 54.4688 320.117 54.4688Z" fill="#FAFAFA"/>
<defs>
<filter id="filter0_i_203_21" x="21" y="14" width="46" height="47" filterUnits="userSpaceOnUse" color-interpolation-filters="sRGB">
<feFlood flood-opacity="0" result="BackgroundImageFix"/>
<feBlend mode="normal" in="SourceGraphic" in2="BackgroundImageFix" result="shape"/>
<feColorMatrix in="SourceAlpha" type="matrix" values="0 0 0 0 0 0 0 0 0 0 0 0 0 0 0 0 0 0 127 0" result="hardAlpha"/>
<feOffset dx="4" dy="4"/>
<feGaussianBlur stdDeviation="2"/>
<feComposite in2="hardAlpha" operator="arithmetic" k2="-1" k3="1"/>
<feColorMatrix type="matrix" values="0 0 0 0 0 0 0 0 0 0 0 0 0 0 0 0 0 0 0.25 0"/>
<feBlend mode="normal" in2="shape" result="effect1_innerShadow_203_21"/>
</filter>
<linearGradient id="paint0_linear_203_21" x1="177.5" y1="0" x2="177.5" y2="77" gradientUnits="userSpaceOnUse">
<stop stop-color="#7C5DC2"/>
<stop offset="1" stop-color="#60A3EB"/>
</linearGradient>
<linearGradient id="paint1_linear_203_21" x1="21" y1="35" x2="86" y2="35" gradientUnits="userSpaceOnUse">
<stop stop-color="#FDE402"/>
<stop offset="0.536458" stop-color="#FF0000"/>
</linearGradient>
</defs>
</svg>
